# xmcd CD database file
#
# Track frame offsets:
#	150
#	14242
#	26115
#	43392
#	62930
#	80267
#	97929
#	111717
#	128707
#	145392
#
# Disc length: 2140 seconds
#
# Revision: 2
# Processed by: cddbd v1.5.1PL2 Copyright (c) Steve Scherf et al.
# Submitted via: CDex 1.51
#
DISCID=96085a0a
DTITLE=Various Artist - Hit Country '96
DYEAR=1996
DGENRE=Country
TTITLE0=Joe Diffie - Third Rock From The Sun
TTITLE1=Martina McBride - My Baby Loves Me
TTITLE2=Neal McCoy - No Doubt About It
TTITLE3=Vince Gill - Whenever You Come Around
TTITLE4=Alan Jackson - Livin' On Love
TTITLE5=Alabama - The Cheap Seats
TTITLE6=Tracy Byrd - Watermelon Crawl
TTITLE7=Confederate Railroad - Daddy Never Was The Cadillac Kind
TTITLE8=Diamond Rio - Love A Little Stronger
TTITLE9=Sammy Kershaw - Third Rate Romance
EXTD=YEAR: 1996
EXTT0=
EXTT1=
EXTT2=
EXTT3=
EXTT4=
EXTT5=
EXTT6=
EXTT7=
EXTT8=
EXTT9=
PLAYORDER=
